<?xml version="1.0" encoding="UTF-8"?>
<!DOCTYPE svg PUBLIC "-//W3C//DTD SVG 1.1//EN" "http://www.w3.org/Graphics/SVG/1.1/DTD/svg11.dtd">
<!-- Creator: CorelDRAW 2020 (64 Bit) -->
<svg xmlns="http://www.w3.org/2000/svg" xml:space="preserve" width="59.3993mm" height="59.3454mm" version="1.1" style="shape-rendering:geometricPrecision; text-rendering:geometricPrecision; image-rendering:optimizeQuality; fill-rule:evenodd; clip-rule:evenodd"
viewBox="0 0 1921.05 1919.31"
 xmlns:xlink="http://www.w3.org/1999/xlink"
 xmlns:xodm="http://www.corel.com/coreldraw/odm/2003">
 <defs>
  <style type="text/css">
   <![CDATA[
    .fil4 {fill:#ED3237}
    .fil2 {fill:black}
    .fil0 {fill:black;fill-rule:nonzero}
    .fil1 {fill:#3BB35F;fill-rule:nonzero}
    .fil3 {fill:#FEFEFE;fill-rule:nonzero}
    .fil5 {fill:white;fill-rule:nonzero}
   ]]>
  </style>
 </defs>
 <g id="Camada_x0020_1">
  <metadata id="CorelCorpID_0Corel-Layer"/>
  <g id="_2044190802128">
   <path class="fil0" d="M111.22 1188.93l-3.82 -13.45c15.49,-4.22 28.2,-4.39 38.13,-0.44 9.93,3.93 16.57,11.78 19.91,23.53 3.56,12.55 1.01,23.32 -7.64,32.31 -8.63,8.96 -23.78,16.53 -45.39,22.67 -22.57,6.41 -39.77,8.05 -51.56,4.95 -11.8,-3.13 -19.6,-11.36 -23.39,-24.7 -3.15,-11.1 -2.37,-20.6 2.36,-28.48 4.74,-7.85 13.07,-13.49 24.97,-16.86l1.52 -0.44 3.73 13.13c-8.34,2.36 -14.33,6.17 -17.94,11.42 -3.64,5.27 -4.5,11.26 -2.59,18.02 2.35,8.29 8.07,13.11 17.16,14.47 9.08,1.36 22.97,-0.63 41.62,-5.92 18.25,-5.19 30.71,-10.74 37.4,-16.69 6.66,-5.95 8.76,-13.23 6.32,-21.82 -1.97,-6.93 -6.31,-11.43 -13.03,-13.54 -6.73,-2.11 -15.36,-1.68 -25.87,1.31l-1.89 0.54zm29.46 -72.9l-125.65 15.97 -7.92 -62.33 13.03 -1.66 6.15 48.46 40.44 -5.14 -5.76 -45.28 12.7 -1.62 5.76 45.28 46.29 -5.88 -6.22 -48.96 13.2 -1.68 7.98 62.83zm-12.16 -108.67l-126.62 3.2 -0.48 -18.89 107.5 -46.63 -108.57 4.07 -0.35 -13.64 126.62 -3.2 0.46 18.08 -110.7 47.36 111.8 -3.97 0.35 13.64zm4.95 -147.64l-112.79 -14.33 -4.08 32.08 -12.87 -1.63 9.72 -76.53 12.87 1.63 -3.82 30.08 112.78 14.33 -1.82 14.37zm-48.97 -116.26l4.69 -16.53c2.72,-9.56 2.87,-17.08 0.46,-22.57 -2.38,-5.49 -7.46,-9.36 -15.22,-11.56 -7.42,-2.11 -13.42,-1.68 -17.91,1.34 -4.5,2.98 -7.99,8.91 -10.49,17.71l-5.44 19.15 43.92 12.47zm62.17 32.01l-121.85 -34.6 9.71 -34.19c3.58,-12.61 8.8,-21.23 15.7,-25.9 6.87,-4.67 15.6,-5.49 26.16,-2.49 8.18,2.32 14.17,6.01 18,11.1 3.84,5.09 5.62,11.75 5.41,20.01 2.49,-6.59 6.11,-11.02 10.87,-13.31 4.74,-2.3 11.21,-2.68 19.39,-1.17 3.01,0.6 7.21,1.46 12.51,2.62 13.52,2.93 22.23,3.1 26.1,0.49l-4.79 16.86c-3.28,0.87 -10.21,0.07 -20.77,-2.4 -5.31,-1.22 -9.51,-2.15 -12.65,-2.74 -8.61,-1.66 -14.95,-1.1 -19.08,1.64 -4.11,2.74 -7.48,8.76 -10.13,18.1l-4.93 17.34 54.12 15.37 -3.77 13.29zm-15.92 -156.81c18.54,8.38 32.16,12.42 40.87,12.1 8.67,-0.33 15,-4.83 18.93,-13.53 3.98,-8.8 3.3,-16.5 -2.06,-23.11 -5.36,-6.61 -17.46,-14.18 -36.37,-22.73 -18.85,-8.52 -32.51,-12.6 -40.98,-12.24 -8.46,0.37 -14.68,4.95 -18.66,13.75 -3.93,8.69 -3.17,16.41 2.33,23.14 5.46,6.72 17.45,14.27 35.94,22.63zm-6.03 13.35c-21.49,-9.71 -35.62,-19.61 -42.41,-29.68 -6.79,-10.06 -7.23,-21.63 -1.34,-34.65 5.93,-13.12 14.87,-20.48 26.79,-22.02 11.94,-1.54 28.72,2.57 50.41,12.38 21.69,9.8 35.87,19.66 42.61,29.64 6.72,9.94 7.1,21.51 1.14,34.68 -5.86,12.97 -14.87,20.23 -27.01,21.8 -12.13,1.55 -28.85,-2.5 -50.18,-12.15zm133.66 -143.52l10.62 -14.94c3.43,-4.83 5.6,-8.9 6.52,-12.28 0.91,-3.35 0.78,-6.57 -0.31,-9.63 -1.8,-4.93 -4.98,-9.81 -9.48,-14.62 -4.5,-4.82 -11.51,-10.6 -21.03,-17.36 -16.66,-11.85 -29.01,-18.01 -37.07,-18.5 -8.07,-0.47 -15.47,4.05 -22.24,13.56l-10.33 14.52 83.32 59.25zm1.68 18.56l-103.23 -73.4 20.78 -29.22c8.33,-11.71 18.38,-17.55 30.15,-17.55 11.76,0.03 25.88,5.89 42.38,17.62 11.59,8.24 20.5,16.02 26.68,23.28 6.18,7.25 10.04,14.47 11.57,21.7 1.08,4.93 1,9.59 -0.19,13.98 -1.23,4.39 -4.27,10.02 -9.17,16.91l-18.97 26.68zm75.58 -99.31l-91.67 -87.41 43.36 -45.47 9.51 9.07 -33.71 35.35 29.5 28.13 31.5 -33.03 9.26 8.83 -31.5 33.03 33.77 32.2 34.05 -35.71 9.63 9.18 -43.7 45.84zm128.75 -117.7l-65.88 -92.66 -26.35 18.74 -7.52 -10.57 62.87 -44.71 7.51 10.57 -24.71 17.57 65.88 92.66 -11.8 8.39zm70.93 -47.15l-63.14 -109.8 54.47 -31.32 6.55 11.39 -42.34 24.35 20.32 35.34 39.57 -22.76 6.38 11.1 -39.57 22.75 23.26 40.45 42.78 -24.6 6.63 11.53 -54.9 31.57zm84.98 -118.66l15.98 -6.3c9.25,-3.65 15.31,-8.09 18.22,-13.34 2.92,-5.23 2.91,-11.62 -0.05,-19.11 -2.83,-7.18 -6.81,-11.68 -11.94,-13.43 -5.1,-1.76 -11.92,-0.94 -20.44,2.42l-18.51 7.3 16.74 42.46zm12.3 68.84l-46.47 -117.84 33.07 -13.04c12.2,-4.81 22.21,-5.89 30.11,-3.24 7.88,2.63 13.83,9.07 17.86,19.28 3.12,7.91 3.83,14.9 2.11,21.04 -1.71,6.14 -5.92,11.6 -12.61,16.45 6.75,-2.02 12.46,-1.83 17.18,0.56 4.7,2.37 8.93,7.28 12.7,14.69 1.36,2.76 3.21,6.61 5.51,11.53 5.88,12.53 11.03,19.55 15.45,21.04l-16.3 6.43c-2.69,-2.08 -6.26,-8.07 -10.7,-17.96 -2.26,-4.96 -4.08,-8.87 -5.5,-11.72 -3.9,-7.84 -8.2,-12.55 -12.89,-14.17 -4.67,-1.59 -11.5,-0.62 -20.54,2.94l-16.76 6.61 20.64 52.34 -12.85 5.07zm121.9 -91.86l32.85 -7.58 -31.33 -60.87 -1.52 68.45zm-14.94 54.1l5.17 -131.18 17.56 -4.05 62.62 115.54 -13.95 3.21 -17.57 -33.45 -39.11 9.03 -0.75 37.68 -13.95 3.22zm134.91 -91.05l18.51 -1.4c8.53,-0.65 14.62,-3.17 18.34,-7.54 3.69,-4.39 5.22,-10.95 4.56,-19.69 -0.61,-8.03 -3.07,-13.7 -7.41,-17 -4.31,-3.31 -10.99,-4.59 -20.06,-3.9l-17.61 1.34 3.66 48.2zm-9.1 66.91l-9.61 -126.3 32.39 -2.46c13.77,-1.05 24.03,1.01 30.79,6.18 6.79,5.17 10.62,13.86 11.56,26.06 0.95,12.52 -1.63,22.22 -7.75,29.11 -6.14,6.91 -15.62,10.84 -28.46,11.82l-18.85 1.43 4.04 53.07 -14.11 1.08zm115.87 -4.56l3.2 -126.63 14.48 0.37 -3.2 126.63 -14.48 -0.37zm87.81 -43.03l33.44 4.25 -8.34 -67.95 -25.1 63.7zm-32.74 45.59l50.22 -121.3 17.88 2.27 18.79 130.07 -14.2 -1.8 -4.92 -37.47 -39.83 -5.06 -13.74 35.1 -14.21 -1.8zm134.7 -18.12l12.97 3.68 -1.24 4.35c-2.36,8.32 -2.22,15.12 0.39,20.42 2.64,5.33 7.71,9.04 15.19,11.17 6.75,1.91 12.62,1.39 17.64,-1.59 5.01,-2.95 8.53,-8.02 10.55,-15.16 1.62,-5.7 1.7,-10.4 0.23,-14.18 -1.48,-3.75 -5.92,-8.36 -13.27,-13.81 -1.74,-1.3 -4.17,-3.1 -7.34,-5.4 -8.86,-6.4 -14.07,-10.8 -15.61,-13.16 -2.52,-3.98 -4.02,-8.27 -4.52,-12.87 -0.47,-4.6 0.07,-9.67 1.62,-15.15 3.01,-10.59 8.28,-18.05 15.84,-22.39 7.56,-4.29 16.57,-4.98 27.02,-2.01 9.91,2.82 16.9,7.81 20.94,14.94 4.05,7.13 4.68,15.58 1.9,25.35 -0.08,0.3 -0.26,0.81 -0.52,1.52 -0.25,0.68 -0.42,1.19 -0.51,1.51l-12.48 -3.54 0.36 -1.26c1.95,-6.86 1.77,-12.6 -0.52,-17.28 -2.33,-4.66 -6.52,-7.87 -12.65,-9.62 -6.35,-1.8 -11.85,-1.43 -16.51,1.09 -4.65,2.51 -7.83,6.8 -9.55,12.88 -1.63,5.72 -1.66,10.53 -0.06,14.4 1.59,3.86 6.11,8.51 13.58,13.95 0.92,0.64 2.22,1.62 3.98,2.91 11.39,8.31 17.98,13.97 19.81,17.01 2.2,3.63 3.48,7.66 3.77,12.1 0.32,4.41 -0.31,9.42 -1.9,15.01 -3.28,11.53 -9.02,19.62 -17.22,24.27 -8.22,4.61 -18.02,5.3 -29.42,2.06 -11.34,-3.22 -19.01,-8.81 -23.01,-16.81 -4,-7.96 -4.25,-18.1 -0.76,-30.39 0.12,-0.43 0.34,-1.09 0.65,-2 0.32,-0.9 0.54,-1.57 0.66,-2zm163.32 103.51l26.26 -128.86 13.69 7.01 -24.42 110.12 75.8 -83.8 12.59 6.45 -88.77 96.83 -15.15 -7.76zm78.57 45.01l68.35 -106.64 12.2 7.82 -68.35 106.64 -12.2 -7.82zm111.24 -10.62l11.18 9.69c6.72,5.82 12.52,8.66 17.38,8.53 4.87,-0.13 9.92,-3.22 15.18,-9.29 4.98,-5.75 7.11,-10.99 6.37,-15.72 -0.71,-4.75 -4.6,-10.16 -11.65,-16.26l-10.57 -9.16 -27.9 32.22zm-39.49 45.58l13.63 11.8c6.49,5.63 12.37,8.31 17.61,8.05 5.24,-0.26 10.54,-3.5 15.92,-9.72 6.08,-7.02 8.86,-13.31 8.34,-18.85 -0.54,-5.55 -4.51,-11.52 -11.87,-17.89l-11.76 -10.18 -31.87 36.79zm-18.47 0.49l82.93 -95.73 25 21.66c8.96,7.76 13.81,15.27 14.55,22.56 0.76,7.3 -2.48,15.12 -9.74,23.51 -4.96,5.73 -10.02,9.37 -15.2,10.94 -5.16,1.58 -10.55,1.07 -16.13,-1.53 4.58,5.94 6.52,11.97 5.85,18.11 -0.65,6.12 -3.95,12.63 -9.87,19.46 -7.57,8.74 -15.83,13.43 -24.81,14.06 -8.95,0.6 -17.82,-2.88 -26.63,-10.51l-25.97 -22.5zm149.58 43.43l11.25 12.98c6.51,7.51 12.71,11.76 18.63,12.76 5.9,1.02 11.92,-1.11 18.01,-6.39 5.84,-5.05 8.76,-10.3 8.71,-15.71 -0.03,-5.39 -3.07,-11.57 -9.06,-18.48l-13.03 -15.05 -34.5 29.89zm-60.85 34.45l95.74 -82.94 23.27 26.87c8.58,9.91 12.92,19 13.04,27.32 0.14,8.31 -3.96,16.06 -12.25,23.25 -6.42,5.57 -12.79,8.55 -19.15,8.97 -6.36,0.42 -12.9,-1.73 -19.69,-6.44 4.15,5.69 5.86,11.14 5.17,16.39 -0.67,5.22 -3.9,10.84 -9.64,16.86 -2.15,2.2 -5.17,5.22 -9.05,9.03 -9.87,9.7 -14.79,16.89 -14.72,21.56l-11.47 -13.24c1.06,-3.23 5.53,-8.58 13.39,-16.05 3.93,-3.78 7.01,-6.79 9.22,-9.07 6.1,-6.29 9.12,-11.9 9.09,-16.86 -0.05,-4.94 -3.23,-11.06 -9.59,-18.41l-11.8 -13.62 -42.52 36.84 -9.05 -10.44zm130.54 81.64l18.19 28.39 46.78 -50 -64.97 21.61zm-55.97 4.14l125.27 -39.29 9.73 15.17 -87.73 97.85 -7.72 -12.05 25.59 -27.81 -21.67 -33.8 -35.75 11.97 -7.72 -12.05zm135.54 143.98l5.76 12.74c-14.7,6.46 -27.24,8.49 -37.65,6.05 -10.4,-2.43 -18.13,-9.21 -23.16,-20.35 -5.38,-11.89 -4.44,-22.92 2.79,-33.08 7.22,-10.13 21.09,-19.85 41.56,-29.11 21.38,-9.67 38.14,-13.83 50.26,-12.5 12.13,1.36 21.05,8.35 26.77,20.99 4.75,10.52 5.38,20.03 1.86,28.52 -3.54,8.47 -10.94,15.26 -22.22,20.36l-1.43 0.65 -5.62 -12.44c7.9,-3.57 13.26,-8.21 16.06,-13.95 2.82,-5.75 2.8,-11.8 -0.09,-18.2 -3.55,-7.85 -9.91,-11.78 -19.1,-11.79 -9.19,-0.01 -22.63,4 -40.3,11.99 -17.29,7.82 -28.8,15.15 -34.53,22.02 -5.71,6.86 -6.72,14.38 -3.04,22.51 2.97,6.57 7.92,10.38 14.89,11.47 6.97,1.1 15.44,-0.6 25.39,-5.1l1.79 -0.81zm-19.26 76.67l119.98 -40.6 4.64 13.73 -119.98 40.6 -4.64 -13.73zm84.06 58.38c-19.83,4.57 -33.1,9.62 -39.84,15.16 -6.7,5.52 -9,12.94 -6.85,22.24 2.17,9.4 7.38,15.12 15.65,17.13 8.27,2.01 22.49,0.69 42.7,-3.98 20.16,-4.65 33.49,-9.69 40.02,-15.11 6.5,-5.42 8.68,-12.83 6.51,-22.24 -2.15,-9.3 -7.43,-14.97 -15.88,-16.99 -8.42,-2.04 -22.53,-0.77 -42.31,3.8zm-3.3 -14.28c22.98,-5.3 40.21,-5.99 51.72,-2.11 11.49,3.89 18.86,12.82 22.07,26.75 3.24,14.03 0.59,25.3 -7.95,33.75 -8.56,8.46 -24.4,15.38 -47.59,20.73 -23.19,5.35 -40.46,6.11 -51.86,2.25 -11.37,-3.83 -18.69,-12.79 -21.94,-26.89 -3.2,-13.87 -0.43,-25.11 8.27,-33.71 8.71,-8.58 24.46,-15.5 47.27,-20.77zm-37.47 139.91l126.3 -9.61 1.43 18.84 -105 52.02 108.23 -9.56 1.03 13.61 -126.3 9.61 -1.37 -18.03 108.17 -52.91 -111.46 9.63 -1.03 -13.6zm53.03 146.01l-2.55 33.62 67.45 -11.76 -64.89 -21.86zm-47.18 -30.39l123.68 44.04 -1.36 17.97 -128.96 25.33 1.09 -14.27 37.18 -6.8 3.04 -40.03 -35.75 -11.96 1.09 -14.28zm-13.84 127.33l124.69 22.27 -2.55 14.27 -124.69 -22.28 2.55 -14.26zm26.1 70.85l-3.68 12.97 -4.35 -1.24c-8.32,-2.36 -15.12,-2.22 -20.42,0.39 -5.33,2.64 -9.04,7.71 -11.17,15.19 -1.91,6.75 -1.39,12.62 1.59,17.64 2.95,5.01 8.02,8.53 15.16,10.55 5.7,1.62 10.4,1.7 14.18,0.23 3.75,-1.48 8.36,-5.92 13.81,-13.27 1.3,-1.73 3.1,-4.17 5.4,-7.34 6.4,-8.86 10.8,-14.07 13.16,-15.61 3.98,-2.52 8.27,-4.02 12.87,-4.52 4.61,-0.47 9.67,0.07 15.15,1.62 10.59,3.01 18.06,8.28 22.39,15.84 4.29,7.56 4.98,16.57 2.01,27.02 -2.82,9.91 -7.81,16.9 -14.94,20.94 -7.13,4.05 -15.58,4.68 -25.35,1.9 -0.3,-0.08 -0.81,-0.26 -1.52,-0.52 -0.68,-0.25 -1.19,-0.42 -1.51,-0.51l3.54 -12.48 1.26 0.36c6.86,1.95 12.6,1.77 17.28,-0.52 4.66,-2.33 7.87,-6.52 9.62,-12.65 1.8,-6.35 1.43,-11.85 -1.09,-16.51 -2.5,-4.65 -6.79,-7.83 -12.88,-9.55 -5.72,-1.63 -10.53,-1.66 -14.4,-0.06 -3.86,1.59 -8.51,6.11 -13.95,13.58 -0.64,0.92 -1.62,2.22 -2.91,3.98 -8.31,11.38 -13.97,17.98 -17.01,19.8 -3.63,2.2 -7.66,3.48 -12.1,3.77 -4.41,0.32 -9.42,-0.31 -15.01,-1.9 -11.53,-3.28 -19.62,-9.02 -24.27,-17.22 -4.61,-8.22 -5.3,-18.02 -2.06,-29.42 3.22,-11.34 8.81,-19.01 16.81,-23.01 7.96,-4 18.1,-4.25 30.39,-0.76 0.43,0.12 1.09,0.34 2,0.65 0.9,0.32 1.57,0.54 2,0.66z"/>
   <path class="fil0" d="M273.53 1629.19l87.67 -91.42 13.64 13.08 -43.51 108.8 74.24 -79.33 9.85 9.45 -87.67 91.42 -13.05 -12.52 45.27 -111.57 -76.6 81.53 -9.85 -9.44zm135.46 53.92l27.45 19.58 24.83 -63.81 -52.28 44.23zm-50.41 24.65l101.66 -83.06 14.67 10.47 -45.04 123.46 -11.65 -8.31 13.41 -35.33 -32.68 -23.31 -28.72 24.41 -11.66 -8.32zm115.2 78.25l56.9 -98.42 -27.99 -16.19 6.49 -11.23 66.78 38.61 -6.49 11.23 -26.24 -15.17 -56.91 98.42 -12.54 -7.25zm100.61 -2.85l30.78 13.76 11.71 -67.45 -42.49 53.69zm-44.54 34.14l83.23 -101.53 16.45 7.36 -19.73 129.92 -13.07 -5.84 6.16 -37.29 -36.65 -16.39 -23.33 29.61 -13.07 -5.85zm118.36 48.96l40.13 -120.14 13.42 4.48 -35.81 107.2 47.93 16.01 -4.32 12.94 -61.35 -20.49zm105.08 29.37l3.94 -16.9 14.6 3.41 -3.94 16.9 -14.6 -3.41zm87.41 -53.85l17.06 2.05c9.87,1.19 17.32,0.16 22.36,-3.08 5.05,-3.21 8.08,-8.84 9.05,-16.84 0.92,-7.66 -0.44,-13.51 -4.12,-17.48 -3.64,-3.97 -10.05,-6.5 -19.13,-7.59l-19.76 -2.38 -5.45 45.33zm-21.9 66.41l15.13 -125.76 35.29 4.25c13.02,1.57 22.34,5.38 28.03,11.46 5.69,6.06 7.86,14.55 6.55,25.45 -1.02,8.45 -3.72,14.94 -8.15,19.52 -4.42,4.59 -10.73,7.39 -18.91,8.47 6.9,1.42 11.84,4.31 14.85,8.66 3.01,4.32 4.4,10.65 4.19,18.96 -0.12,3.07 -0.32,7.34 -0.63,12.77 -0.79,13.81 0.41,22.44 3.59,25.84l-17.39 -2.09c-1.38,-3.1 -1.68,-10.07 -0.88,-20.89 0.37,-5.44 0.63,-9.74 0.73,-12.92 0.28,-8.75 -1.25,-14.93 -4.61,-18.59 -3.35,-3.63 -9.82,-6.02 -19.46,-7.18l-17.89 -2.15 -6.72 55.86 -13.71 -1.65zm124.69 11.13l-4.05 -126.6 18.88 -0.6 47.35 107.18 -4.79 -108.54 13.64 -0.43 4.05 126.59 -18.08 0.58 -48.1 -110.38 4.73 111.77 -13.64 0.44zm126.43 -7.18l-2.08 -17.22 14.89 -1.79 2.07 17.22 -14.88 1.79zm63.06 -83.01l14.42 -3.33c8.67,-2 14.37,-5.01 17.13,-9.02 2.77,-4.01 3.25,-9.92 1.44,-17.74 -1.71,-7.41 -4.69,-12.23 -8.94,-14.41 -4.26,-2.23 -10.92,-2.27 -20,-0.17l-13.63 3.14 9.58 41.53zm13.56 58.75l17.56 -4.05c8.38,-1.94 14.01,-5.1 16.89,-9.49 2.88,-4.38 3.38,-10.57 1.53,-18.59 -2.09,-9.06 -5.53,-15 -10.31,-17.85 -4.8,-2.84 -11.96,-3.14 -21.45,-0.95l-15.16 3.5 10.94 47.43zm-10.49 15.22l-28.48 -123.42 32.22 -7.44c11.54,-2.66 20.47,-2.16 26.8,1.54 6.35,3.69 10.76,10.92 13.25,21.72 1.7,7.38 1.67,13.62 -0.12,18.72 -1.76,5.11 -5.35,9.16 -10.74,12.13 7.5,-0.21 13.52,1.78 18.08,5.94 4.56,4.14 7.87,10.63 9.9,19.44 2.6,11.27 1.52,20.71 -3.26,28.32 -4.79,7.59 -12.83,12.7 -24.18,15.32l-33.48 7.73zm104.47 -98.3l16.2 -5.71c9.37,-3.31 15.59,-7.53 18.69,-12.67 3.1,-5.11 3.33,-11.5 0.65,-19.1 -2.56,-7.28 -6.37,-11.92 -11.44,-13.85 -5.03,-1.95 -11.88,-1.38 -20.51,1.66l-18.77 6.62 15.18 43.05zm9.77 69.25l-42.11 -119.46 33.52 -11.82c12.36,-4.36 22.41,-5.07 30.2,-2.13 7.78,2.91 13.49,9.56 17.14,19.91 2.83,8.02 3.27,15.04 1.34,21.11 -1.93,6.07 -6.34,11.38 -13.21,15.97 6.82,-1.78 12.52,-1.37 17.15,1.19 4.62,2.55 8.66,7.6 12.15,15.15 1.26,2.8 2.97,6.72 5.09,11.72 5.41,12.73 10.3,19.94 14.66,21.59l-16.52 5.82c-2.61,-2.17 -5.96,-8.29 -10.04,-18.33 -2.08,-5.05 -3.75,-9.01 -5.07,-11.91 -3.61,-7.98 -7.73,-12.83 -12.35,-14.63 -4.61,-1.77 -11.47,-1.04 -20.64,2.19l-16.99 5.99 18.71 53.06 -13.03 4.6zm108.02 -96.24l30.17 -15.05 -44.7 -51.86 14.52 66.91zm-1.89 56.1l-25.64 -128.76 16.12 -8.05 87.89 97.71 -12.81 6.39 -24.91 -28.42 -35.93 17.91 8.08 36.82 -12.81 6.39zm88.01 -90.51l10.94 -7.87 2.64 3.67c5.05,7.02 10.47,11.14 16.24,12.39 5.81,1.25 11.88,-0.41 18.19,-4.95 5.69,-4.1 8.93,-9.02 9.72,-14.8 0.8,-5.76 -0.99,-11.67 -5.32,-17.68 -3.46,-4.81 -7.09,-7.8 -10.95,-8.99 -3.86,-1.17 -10.23,-0.57 -19.07,1.81 -2.1,0.54 -5.03,1.33 -8.8,2.39 -10.52,2.96 -17.19,4.31 -20,4.05 -4.69,-0.5 -8.97,-1.99 -12.89,-4.46 -3.89,-2.49 -7.54,-6.06 -10.86,-10.69 -6.42,-8.93 -9,-17.7 -7.69,-26.32 1.33,-8.6 6.39,-16.07 15.21,-22.42 8.37,-6.02 16.62,-8.38 24.72,-7.12 8.1,1.26 15.11,6.01 21.04,14.26 0.18,0.25 0.47,0.7 0.87,1.35 0.38,0.62 0.67,1.07 0.87,1.34l-10.53 7.57 -0.77 -1.07c-4.16,-5.79 -8.77,-9.22 -13.86,-10.33 -5.09,-1.07 -10.22,0.22 -15.39,3.94 -5.36,3.85 -8.5,8.39 -9.41,13.61 -0.93,5.2 0.46,10.36 4.15,15.49 3.47,4.83 7.23,7.84 11.24,9 4.01,1.15 10.46,0.5 19.37,-1.96 1.08,-0.33 2.65,-0.73 4.76,-1.32 13.59,-3.75 22.11,-5.39 25.63,-4.94 4.21,0.53 8.17,2.04 11.82,4.57 3.66,2.49 7.19,6.1 10.58,10.82 7,9.73 9.76,19.26 8.3,28.58 -1.51,9.31 -7.05,17.41 -16.67,24.32 -9.57,6.88 -18.72,9.41 -27.47,7.58 -8.73,-1.81 -16.83,-7.92 -24.28,-18.3 -0.26,-0.36 -0.65,-0.94 -1.16,-1.75 -0.51,-0.81 -0.9,-1.4 -1.16,-1.76zm119.78 -38.57l-78.38 -99.49 11.38 -8.97 78.38 99.5 -11.38 8.97zm48.57 -41.45l-88.39 -90.72 10.13 -9.87 78.87 80.95 36.19 -35.26 9.51 9.77 -46.32 45.14z"/>
   <g>
    <path class="fil1" d="M1594.8 801c-14.65,-53.68 -96.58,-85.71 -217.19,-94.12 -29.45,-2.05 -61.06,-2.62 -94.45,-1.69 0.91,-13.7 1.6,-27.37 2.06,-40.97 33.57,-0.86 65.39,-0.25 95.12,1.83 138.54,9.65 234.12,51.82 253.87,124.22 19.75,72.37 -41.13,157.21 -155.52,235.87 -25.06,17.23 -52.77,34.27 -82.8,50.9 -7.25,-11.5 -14.72,-22.93 -22.39,-34.29 29.81,-16.42 57.25,-33.24 81.98,-50.25 99.68,-68.53 154,-137.79 139.34,-191.5zm-262.95 309.14c-88.08,42.6 -191.22,81.26 -303.45,111.89 -112.94,30.82 -222.05,49.95 -319.99,57.92 0.55,-13.68 1.34,-27.43 2.35,-41.21 94,-8 198.57,-26.55 306.91,-56.11 107.76,-29.4 206.75,-66.29 291.44,-106.86 7.8,11.38 15.39,22.84 22.74,34.37zm-695.56 173.73c-16.18,0.41 -31.96,0.49 -47.29,0.21 2.2,-8.56 3.36,-17.52 3.36,-26.77 0,-4.79 -0.32,-9.5 -0.92,-14.12 15.2,0.24 30.86,0.14 46.93,-0.31 -0.91,13.7 -1.61,27.37 -2.08,40.98zm-258.5 -36.71c-48.23,-21.05 -80.04,-50.95 -90.52,-89.35 -19.75,-72.37 41.13,-157.21 155.52,-235.87 76.25,-52.43 177.03,-103.1 293.44,-145.89 -5.71,16.63 -11.15,33.26 -16.32,49.82 -100.16,38.96 -186.94,83.67 -253.9,129.71 -99.67,68.53 -154,137.79 -139.34,191.5 6.9,25.27 28.71,45.74 62.44,61.21 -6.08,11.85 -10.02,24.98 -11.33,38.87zm445.62 -500.72c22.78,-7.12 46.02,-13.94 69.66,-20.39 23.99,-6.55 47.8,-12.56 71.38,-18.06 13.38,10.84 26.56,21.85 39.51,32.98 -32.88,7.1 -66.33,15.25 -100.15,24.48 -33.57,9.16 -66.29,19.05 -97.99,29.54 5.6,-16.2 11.47,-32.4 17.6,-48.56zm230.72 -57.09c55.28,-10.07 108.61,-17.12 158.98,-21.22 -0.54,13.68 -1.31,27.42 -2.32,41.21 -37.64,3.2 -76.98,8.1 -117.57,14.71 -12.78,-11.65 -25.82,-23.23 -39.09,-34.7z"/>
    <path class="fil1" d="M464.13 483.39c52.76,-53.39 156.7,-43.25 282.1,16.33 119.27,56.66 260.42,158.28 395.17,291.43 0.1,0.05 0.22,0.06 0.14,0.14 121.32,119.91 217.14,245.33 277.4,355.72 -13.71,2.98 -26.44,8.58 -37.65,16.24 -58.49,-106.17 -151.16,-226.93 -268.54,-342.92 -0.1,-0.05 -0.22,-0.06 -0.15,-0.14 -131.44,-129.86 -268.49,-228.67 -383.84,-283.47 -109.26,-51.9 -196.39,-64.22 -235.49,-24.65 -39.16,39.63 -25.85,126.63 27.33,235.23 13.54,27.65 29.66,56.54 48.17,86.27l-8.75 4.46c-9.28,4.76 -18.48,9.57 -27.56,14.43 -18.58,-30.02 -34.82,-59.21 -48.53,-87.22 -61.07,-124.71 -72.5,-228.51 -19.81,-281.84zm1025.76 864.91c4.41,49.23 -5.8,89.33 -32.55,116.4 -52.76,53.39 -156.7,43.24 -282.1,-16.32 -28.31,-13.45 -57.86,-29.44 -88.26,-47.78 6.41,-12 12.65,-24.15 18.73,-36.44 30.01,18.19 59.13,33.99 86.99,47.22 109.26,51.9 196.39,64.22 235.49,24.65 17.09,-17.29 24.18,-43.61 22.33,-76.79 14.06,-1.12 27.35,-4.94 39.37,-10.94zm-463.6 13.31c-42.15,-28.68 -85.39,-61.41 -128.81,-97.74 17.18,-3.43 34.22,-7.09 51.08,-10.93 32.5,26.2 64.76,50.23 96.36,71.91 -6.03,12.41 -12.24,24.67 -18.64,36.76zm-188.33 -149.73c-19.37,-17.65 -38.69,-35.97 -57.89,-54.93l-0.16 -0.08 0.04 -0.04c-18.11,-17.9 -35.65,-35.92 -52.59,-53.99 2.82,-16.89 5.88,-33.69 9.16,-50.35 22.87,25.2 46.97,50.37 72.22,75.31l0.16 0.08 -0.03 0.04c26.44,26.13 53.11,51 79.79,74.5 -16.77,3.39 -33.68,6.55 -50.69,9.46zm-171.31 -177.04c-36.27,-42.69 -68.96,-85.21 -97.64,-126.66 7.14,-3.81 14.21,-7.5 21.21,-11.09 5.05,-2.59 10.18,-5.18 15.38,-7.77 21.68,31.07 45.69,62.77 71.84,94.71 -3.79,16.76 -7.41,33.71 -10.8,50.81z"/>
    <path class="fil2" d="M1441.9 1344.09c-50.83,0 -92.03,-41.2 -92.03,-92.03 0,-50.83 41.2,-92.03 92.03,-92.03 50.82,0 92.03,41.2 92.03,92.03 0,50.82 -41.2,92.03 -92.03,92.03z"/>
    <polygon class="fil3" points="1378.26,1203.19 1416.17,1203.19 1442.64,1287.71 1468.71,1203.19 1505.53,1203.19 1461.93,1320.62 1422.63,1320.62 "/>
    <path class="fil2" d="M968.04 1115.61c-78.42,0 -141.98,-63.57 -141.98,-141.98 0,-78.41 63.57,-141.98 141.98,-141.98 78.41,0 141.98,63.57 141.98,141.98 0,78.41 -63.57,141.98 -141.98,141.98z"/>
    <path class="fil4" d="M968.04 1115.61c-78.41,0 -141.98,-63.57 -141.98,-141.98 0,-78.41 63.57,-141.98 141.98,-141.98 87.5,12.44 108.43,135.27 -6.73,143.53 -97.88,7.02 -79.79,133.86 6.73,140.44z"/>
    <polygon class="fil0" points="959.25,938.93 959.25,916.05 936.13,916.05 936.13,900.31 959.25,900.31 959.25,877.43 974.63,877.43 974.63,900.31 997.75,900.31 997.75,916.05 974.63,916.05 974.63,938.93 "/>
    <polygon class="fil3" points="941.8,1052.13 941.8,1035.28 1001.15,1035.28 1001.15,1052.13 "/>
    <path class="fil1" d="M1143.2 300.17c72.46,19.63 114.84,115.14 124.75,253.67 6.57,91.8 -0.65,203.62 -22.4,324.86 -11.56,-13.09 -23.23,-25.95 -34.96,-38.54 16.97,-105.66 22.29,-202.7 16.51,-283.44 -8.63,-120.59 -40.81,-202.45 -94.48,-216.99 -53.77,-14.56 -122.91,39.85 -191.22,139.59 -17.44,25.47 -34.69,53.8 -51.49,84.64 -11.44,-7.57 -22.96,-14.94 -34.53,-22.09 17.05,-31.12 34.54,-59.77 52.24,-85.61 78.48,-114.6 163.21,-175.68 235.58,-156.08zm-286.05 328.3c-39.83,84.02 -76,181.92 -104.87,288.38l-0.16 0.61c-48.33,178.43 -66.86,346.48 -57.75,473.91 8.63,120.59 40.81,202.45 94.48,216.99 25.65,6.95 54.8,-1.81 85.69,-23.69 7.17,11.57 16.47,21.69 27.37,29.79 -42.85,31.38 -85,43.91 -123.62,33.45 -72.47,-19.63 -114.84,-115.14 -124.75,-253.67 -9.38,-131.04 9.33,-302.86 58.3,-484.67l0.72 -2.7c30.09,-111.08 68.07,-213.3 109.98,-300.85 11.61,7.24 23.16,14.73 34.62,22.42zm148.97 799.89c37.54,-61.71 73.56,-136.23 105.54,-219.87 16.55,-5.27 33.18,-10.8 49.82,-16.58 -35.82,99.11 -77.38,187.14 -121,258.69 -9.84,-9.46 -21.48,-17.05 -34.36,-22.23zm221.18 -460.53c-5.57,24.22 -11.69,48.71 -18.37,73.37 -6.96,25.68 -14.33,50.88 -22.08,75.54 -16.22,6.15 -32.48,12.04 -48.74,17.67 11.14,-33.51 21.61,-68.16 31.26,-103.78 9.31,-34.38 17.52,-68.37 24.63,-101.77 11.24,12.77 22.35,25.77 33.3,38.97z"/>
    <path class="fil2" d="M484.83 1349.35c-50.82,0 -92.03,-41.2 -92.03,-92.03 0,-50.83 41.21,-92.03 92.03,-92.03 50.83,0 92.03,41.2 92.03,92.03 0,50.82 -41.2,92.03 -92.03,92.03z"/>
    <path class="fil2" d="M965.99 1620.17c-50.82,0 -92.02,-41.2 -92.02,-92.02 0,-50.83 41.2,-92.03 92.02,-92.03 50.83,0 92.03,41.2 92.03,92.03 0,50.82 -41.2,92.02 -92.03,92.02z"/>
    <path class="fil3" d="M510.17 1267.98l31.82 9.6c-2.13,8.91 -5.49,16.37 -10.11,22.33 -4.59,5.99 -10.28,10.49 -17.11,13.53 -6.81,3.04 -15.47,4.57 -26,4.57 -12.79,0 -23.21,-1.86 -31.33,-5.55 -8.09,-3.72 -15.06,-10.25 -20.94,-19.57 -5.88,-9.32 -8.83,-21.29 -8.83,-35.83 0,-19.41 5.16,-34.33 15.5,-44.77 10.36,-10.41 24.98,-15.64 43.9,-15.64 14.79,0 26.43,2.98 34.91,8.97 8.45,5.99 14.76,15.17 18.86,27.58l-31.98 7.08c-1.12,-3.55 -2.3,-6.15 -3.53,-7.79 -2.05,-2.76 -4.54,-4.89 -7.46,-6.37 -2.95,-1.5 -6.23,-2.24 -9.87,-2.24 -8.26,0 -14.57,3.31 -18.94,9.9 -3.31,4.89 -4.98,12.6 -4.98,23.07 0,13.01 1.97,21.9 5.93,26.73 3.97,4.81 9.51,7.22 16.68,7.22 6.94,0 12.19,-1.94 15.74,-5.85 3.55,-3.88 6.12,-9.54 7.74,-16.95z"/>
    <polygon class="fil5" points="910.81,1476.81 1021.18,1476.81 1021.18,1505.84 984.12,1505.84 984.12,1594.24 947.87,1594.24 947.87,1505.84 910.81,1505.84 "/>
   </g>
  </g>
 </g>
</svg>
